<svg width="41" height="41" viewBox="0 0 41 41" fill="none" xmlns="http://www.w3.org/2000/svg"><path d="M0 24.4742L10.1881 32.4863V16.4388L0 24.4742Z" fill="#FF9000"></path> <path d="M0 8.53448L10.1973 16.6211V0.545654L0 8.53448Z" fill="#FFC600"></path> <path d="M10.1055 16.5273L20.3028 24.558V8.46863L10.1055 16.5273Z" fill="#FF7200"></path> <path d="M0.0273438 8.49194V24.5394L10.1971 16.5273L0.0273438 8.49194Z" fill="#FFA800"></path> <path d="M10.1606 0.545654V16.635L20.3304 8.54845L10.1606 0.545654Z" fill="#FF9C00"></path> <path d="M30.4312 16.4203V32.4864L40.5688 24.4743L30.4312 16.4203Z" fill="#FF8A00"></path> <path d="M30.4355 0.521729V16.5459L40.5686 8.40813L30.4355 0.521729Z" fill="#FFE748"></path> <path d="M20.3027 8.49194V24.5394L30.4771 16.5273L20.3027 8.49194Z" fill="#FF9600"></path> <path d="M10.1699 32.4864L20.3029 40.5218V24.4557L10.1699 32.4864Z" fill="#BC1B00"></path> <path d="M20.2617 24.5162L30.4361 32.5748V16.4622L20.2617 24.5162Z" fill="#E12D1A"></path> <path d="M20.3027 24.4742V40.5217L30.4587 32.5096L20.3027 24.4742Z" fill="#B1150A"></path> <path d="M10.1606 16.504V32.5748L20.3442 24.5022L10.1606 16.504Z" fill="#DD2A00"></path> <path d="M30.3994 16.4994L40.5692 24.5115V8.36157L30.3994 16.4994Z" fill="#FFC600"></path> <path d="M20.2798 8.53448L30.445 16.6118V0.545654L20.2798 8.53448Z" fill="#FFCE25"></path></svg>