<svg width="17" height="16" viewBox="0 0 17 16" fill="none" xmlns="http://www.w3.org/2000/svg"><path d="M8.29358 0C3.7205 0 0 3.58885 0 8.00005C0 12.4112 3.7205 16 8.29358 16C12.8667 16 16.5872 12.4112 16.5872 8.00005C16.5872 3.58885 12.8667 0 8.29358 0ZM8.29358 14.5455C4.55192 14.5455 1.50792 11.6092 1.50792 8.00005C1.50792 4.39088 4.55192 1.45455 8.29358 1.45455C12.0352 1.45455 15.0792 4.39088 15.0792 8.00005C15.0792 11.6092 12.0352 14.5455 8.29358 14.5455Z" fill="#7D94C2"></path> <path d="M8.29366 3.39392C7.73944 3.39392 7.28857 3.82912 7.28857 4.36405C7.28857 4.8985 7.73944 5.33331 8.29366 5.33331C8.84787 5.33331 9.29874 4.8985 9.29874 4.36405C9.29874 3.82912 8.84787 3.39392 8.29366 3.39392Z" fill="#7D94C2"></path> <path d="M8.29351 6.78784C7.87713 6.78784 7.53955 7.11347 7.53955 7.51511V11.8788C7.53955 12.2804 7.87713 12.606 8.29351 12.606C8.7099 12.606 9.04748 12.2804 9.04748 11.8788V7.51511C9.04748 7.11347 8.7099 6.78784 8.29351 6.78784Z" fill="#7D94C2"></path></svg>