<svg width="17" height="10" viewBox="0 0 17 10" fill="none" xmlns="http://www.w3.org/2000/svg"> <path d="M16.5001 8.96916L15.6652 9.82812C15.5539 9.94283 15.4258 10 15.2809 10C15.1363 10 15.0082 9.94283 14.897 9.82812L8.33342 3.07562L1.77015 9.82794C1.65883 9.94265 1.53073 9.99982 1.38602 9.99982C1.24125 9.99982 1.11314 9.94265 1.00189 9.82794L0.167059 8.96892C0.0555694 8.85445 0 8.72266 0 8.57371C0 8.42488 0.0557449 8.29308 0.167059 8.17862L7.94929 0.171757C8.06055 0.0572329 8.18871 0 8.33342 0C8.47814 0 8.60606 0.0572329 8.71726 0.171757L16.5001 8.17862C16.6114 8.29314 16.6667 8.42494 16.6667 8.57371C16.6667 8.72266 16.6114 8.85445 16.5001 8.96916Z" fill="white"></path> </svg>