<svg width="38" height="38" viewBox="0 0 38 38" fill="none" xmlns="http://www.w3.org/2000/svg"><path d="M35.3077 2.97083H2.7004C1.2156 2.97083 0.00754471 4.17858 0.00754471 5.66338L0 27.8792C0 29.3637 1.20746 30.5763 2.69225 30.5763H17.3605V33.2478H11.2772C11.1134 33.2478 10.9857 33.3872 10.9857 33.5511V34.7229C10.9857 34.8868 11.1131 35.0292 11.2772 35.0292H26.6684C26.8317 35.0292 27.0143 34.8868 27.0143 34.7229V33.5511C27.0143 33.3872 26.8317 33.2478 26.6684 33.2478H19.6395V30.5763H35.3005C36.7841 30.5763 37.9931 29.3637 37.9931 27.8792L38 5.6658C38.0003 4.1807 36.7925 2.97083 35.3077 2.97083ZM35.6225 27.6395H2.37749V5.3453H35.6225V27.6395Z" fill="white"></path></svg>