<svg width="32" height="32" viewBox="0 0 32 32" fill="none" xmlns="http://www.w3.org/2000/svg"><path d="M27.2371 30.2302C27.2371 31.2052 26.4433 32 25.4678 32H6.52343C5.54816 32 4.75488 31.2055 4.75488 30.2302L4.76327 1.76956C4.76327 0.794043 5.5568 1.90735e-06 6.53181 1.90735e-06H25.4764C26.4519 1.90735e-06 27.2452 0.794043 27.2452 1.76956L27.2371 30.2302ZM14.765 30.0002H17.2358C17.5129 30.0002 17.7358 29.7765 17.7358 29.5002C17.7358 29.2242 17.5129 29 17.2358 29H14.765C14.4887 29 14.2651 29.2239 14.2651 29.5002C14.2651 29.7765 14.4887 30.0002 14.765 30.0002ZM12.8971 29.8451C13.0824 30.0324 13.4171 30.0324 13.6047 29.8451C13.697 29.7523 13.7524 29.6225 13.7524 29.4923C13.7524 29.3601 13.697 29.2328 13.6047 29.14C13.5119 29.045 13.3821 28.9924 13.2499 28.9924C13.1175 28.9924 12.9896 29.045 12.8971 29.14C12.8048 29.2326 12.7499 29.3601 12.7499 29.4923C12.7499 29.6225 12.8051 29.7523 12.8971 29.8451ZM6.00008 2V27.25H26V2H6.00008Z" fill="white"></path></svg>